<?xml version="1.0" encoding="utf-8"?>
<!-- Generator: Adobe Illustrator 24.0.0, SVG Export Plug-In . SVG Version: 6.00 Build 0)  -->
<svg version="1.1" id="Layer_2_1_" xmlns="http://www.w3.org/2000/svg" xmlns:xlink="http://www.w3.org/1999/xlink" x="0px" y="0px"
	 viewBox="0 0 1200.9 261.4" style="enable-background:new 0 0 1200.9 261.4;" xml:space="preserve">
<style type="text/css">
	.st0{fill:#C62020;}
	.st1{fill:#080808;}
	.st2{fill:#F5F5F5;}
</style>
<title>logo-full-logo</title>
<polygon class="st0" points="193.7,0 0,0 0,187.9 94.6,261.4 289.3,261.4 289.3,70.9 "/>
<polygon class="st1" points="43.7,188.7 43.7,119.7 137.7,188.7 "/>
<polygon class="st1" points="244.9,243.8 43.7,94.7 43.7,17.6 244.9,174 "/>
<polygon class="st1" points="245.7,147.6 152.4,76.4 245.7,76.4 "/>
<g>
	<path class="st0" d="M385.2,114v66.9l-39.9,25.6v-133h132.8v133l-39.9-25.6V114H385.2z"/>
	<path class="st0" d="M596.4,166.5l26.8,40.1H491.7v-133h131.5l-26.8,40.1h-64.8v6.8h60.3l-26.4,39.2h-33.9v6.8H596.4z"/>
	<path class="st0" d="M767.4,181.1l-26.8,25.4H634.6v-133h132.8V126L753,140l14.5,13.6V181.1z M727.6,114h-53.1v6.4h53.1V114z
		 M674.5,166h53.1v-6.4h-53.1V166z"/>
	<path class="st0" d="M885.7,166.5l26.8,40.1H781v-133h131.5l-26.8,40.1h-64.8v6.8h60.3l-26.4,39.2h-33.9v6.8H885.7z"/>
	<path class="st0" d="M1016.9,166.5v-6.8h-92.9V73.5h132.8l-26.8,40.1h-66.1v6.8h92.9v86.1H923.9l26.8-40.1H1016.9z"/>
	<path class="st0" d="M1114.5,180.9v-67.3h-19.6l-26.8-40.1h132.8l-26.8,40.1h-19.6v92.9L1114.5,180.9z"/>
</g>
<g>
	<path class="st2" d="M641.3,224.2h36.5c0.9,0,1.8,0.4,2.6,1.2c0.6,0.7,0.9,1.5,0.9,2.4v6.1h-33.8v4h23.6c0,0,0,0,0,0c0,0,0,0,0,0
		v9.6l0,0v0h-23.7l-0.1,13.8h-6.1c-1.1,0-2-0.5-2.8-1.4c-0.5-0.7-0.8-1.4-0.8-2.1v-30.4c0-0.6,0.2-1.2,0.6-1.8
		C639.2,224.7,640.1,224.2,641.3,224.2z"/>
	<path class="st2" d="M719.5,224.2h7.8c1.4,0,2.5,0.6,3.2,1.8c0.3,0.5,0.5,1.2,0.5,1.9v33.5h-8c-0.9,0-1.7-0.4-2.5-1.1
		c-0.7-0.7-1-1.5-1-2.6V224.2z"/>
	<path class="st2" d="M773.2,224.2h41.4c1,0,1.9,0.3,2.6,0.9c0.4,0.4,0.6,0.7,0.7,0.9c0.3,0.6,0.5,1.1,0.5,1.6v6.3h-20v27.5h-6.2
		c-0.9,0-1.7-0.3-2.5-1c0,0,0,0-0.1-0.1c-0.1-0.1-0.1-0.1-0.2-0.2c-0.5-0.7-0.8-1.4-0.8-2.1v-24.1h-19.3V229c0-1.3,0-1.9,0.1-1.9
		c0.2-0.7,0.4-1.3,0.8-1.7c0.4-0.4,0.7-0.6,0.9-0.7C771.8,224.4,772.4,224.2,773.2,224.2z"/>
	<path class="st2" d="M861,224.2h6c0.2,0,1.8,1.3,4.8,3.9c3,2.6,6.4,5.5,10.2,8.8s7.1,6.2,10,8.8l4.4,3.9v-25.4h6
		c1.3,0,2.3,0.5,3,1.5c0.4,0.6,0.6,1.3,0.6,2.1v30.1c0,1.2-0.5,2.2-1.5,3c-0.3,0.2-0.6,0.3-1,0.5c-0.3,0.1-0.7,0.2-1.4,0.2h-5.6
		c-0.2,0-1.8-1.3-4.9-3.9c-3-2.6-6.4-5.5-10.2-8.8c-3.8-3.3-7.1-6.2-10-8.8l-4.4-3.8v25.4h-5.9c-0.9,0-1.6-0.2-2.1-0.5
		c-0.7-0.4-1.1-1.1-1.4-1.8c-0.1-0.4-0.2-0.8-0.2-1.2v-30c0-1.2,0.5-2.2,1.5-2.9C859.5,224.5,860.2,224.2,861,224.2z"/>
	<path class="st2" d="M986.7,224.2c1.2,0,2.1,0.4,2.8,1.3c0.3,0.4,0.6,0.9,0.7,1.5c0.1,0.2,0.1,0.5,0.1,0.9v5.5h-33.8v5.4h23.7v8.1
		h-23.6l0,0v5.7h33.8c0,0,0,0,0,0v5.4c0,0.8-0.3,1.6-0.9,2.3c-0.4,0.4-0.6,0.6-0.8,0.7c-0.5,0.3-1.2,0.5-2,0.5h-36.4
		c-0.3,0-0.6-0.1-1-0.2c-0.9-0.3-1.6-0.9-2-1.8c-0.2-0.5-0.3-1-0.3-1.6V239c0-0.9,0-3.9,0-8.9v-2.5c0-0.6,0.2-1.2,0.6-1.8
		c0.4-0.6,0.9-1,1.4-1.3c0.4-0.2,0.7-0.3,0.9-0.3c0.1,0,0.3-0.1,0.5-0.1H986.7z"/>
	<path class="st2" d="M1038.8,224.2h33.9c0.9,0,1.8,0.3,2.6,0.9c1.1,0.9,1.6,2.1,1.6,3.5v5.2h-0.1c-2.5,0-7.8,0.1-15.8,0.1
		c-6.3,0-11.3,0.1-14.7,0.1c-3.7,0-6.1,0.1-7.5,0.1c-0.3,0-0.5,0.1-0.7,0.3c-0.2,0.2-0.3,0.4-0.3,0.8v2c0,0.5,0.2,0.8,0.6,1
		c0.1,0,0.1,0,0.1,0c0,0,0.1,0,0.1,0c8.1,0,12.7-0.1,13.8-0.1c0.3,0,0.8,0,1.5,0c2.1,0,6.1-0.1,12-0.1h0.2c0.8,0,1.8,0.1,3.1,0.3
		c0.9,0.2,1.7,0.4,2.3,0.6c1.9,0.7,3.3,1.9,4.1,3.6c0.7,1.4,1.1,3.2,1.1,5.3v3.8c0,3.8-1.1,6.4-3.3,8c-1.8,1.3-4.5,1.9-8,1.9h-33
		c-1.2,0-2.3-0.5-3.3-1.6c-0.7-0.8-1-1.7-1-2.8v-5.3h37.6c0.4,0,0.7-0.2,0.9-0.6c0-0.1,0.1-0.1,0.1-0.2c0-0.1,0-0.1,0-0.1v-2.8
		c0-0.4-0.2-0.6-0.6-0.8c-0.1,0-0.2-0.1-0.3-0.1h-27c-4.3,0-7.2-1.1-8.8-3.2c-0.3-0.4-0.6-0.8-0.7-1.1c-0.2-0.3-0.3-0.8-0.5-1.3
		c-0.1-0.5-0.3-1-0.4-1.7c-0.1-0.7-0.2-1.8-0.2-3.2v-0.2c0-3.4,0.3-5.8,0.9-7.1c0.3-0.9,0.8-1.7,1.5-2.5c0.4-0.4,0.7-0.8,1-0.9
		c1-0.7,2.2-1.2,3.5-1.5C1036.3,224.4,1037.5,224.2,1038.8,224.2z"/>
	<path class="st2" d="M1126.2,224.2h33.9c0.9,0,1.8,0.3,2.6,0.9c1.1,0.9,1.6,2.1,1.6,3.5v5.2h-0.1c-2.5,0-7.8,0.1-15.8,0.1
		c-6.3,0-11.3,0.1-14.7,0.1c-3.7,0-6.1,0.1-7.5,0.1c-0.3,0-0.5,0.1-0.7,0.3c-0.2,0.2-0.3,0.4-0.3,0.8v2c0,0.5,0.2,0.8,0.6,1
		c0.1,0,0.1,0,0.1,0c0,0,0.1,0,0.1,0c8.1,0,12.7-0.1,13.8-0.1c0.3,0,0.8,0,1.5,0c2.1,0,6.1-0.1,12-0.1h0.2c0.8,0,1.8,0.1,3.1,0.3
		c0.9,0.2,1.7,0.4,2.3,0.6c1.9,0.7,3.3,1.9,4.1,3.6c0.7,1.4,1.1,3.2,1.1,5.3v3.8c0,3.8-1.1,6.4-3.3,8c-1.8,1.3-4.5,1.9-8,1.9h-33
		c-1.2,0-2.3-0.5-3.3-1.6c-0.7-0.8-1-1.7-1-2.8v-5.3h37.6c0.4,0,0.7-0.2,0.9-0.6c0-0.1,0.1-0.1,0.1-0.2c0-0.1,0-0.1,0-0.1v-2.8
		c0-0.4-0.2-0.6-0.6-0.8c-0.1,0-0.2-0.1-0.3-0.1h-27c-4.3,0-7.2-1.1-8.8-3.2c-0.3-0.4-0.6-0.8-0.7-1.1c-0.2-0.3-0.3-0.8-0.5-1.3
		c-0.1-0.5-0.3-1-0.4-1.7c-0.1-0.7-0.2-1.8-0.2-3.2v-0.2c0-3.4,0.3-5.8,0.9-7.1c0.3-0.9,0.8-1.7,1.5-2.5c0.4-0.4,0.7-0.8,1-0.9
		c1-0.7,2.2-1.2,3.5-1.5C1123.7,224.4,1124.9,224.2,1126.2,224.2z"/>
</g>
</svg>
