<svg id="Layer_2" data-name="Layer 2" xmlns="http://www.w3.org/2000/svg" viewBox="0 0 1200.85547 261.44004">
  <title>logo-full-logo</title>
  <polygon points="193.653 0 0 0 0 187.934 94.559 261.44 289.347 261.44 289.347 70.902 193.653 0" style="fill: #c62020"/>
  <polygon points="43.696 188.736 43.696 119.704 137.697 188.736 43.696 188.736" style="fill: #080808"/>
  <polygon points="244.916 243.815 43.696 94.735 43.696 17.625 244.916 174.049 244.916 243.815" style="fill: #080808"/>
  <polygon points="245.651 147.611 152.384 76.376 245.651 76.376 245.651 147.611" style="fill: #080808"/>
  <g>
    <path d="M385.187,564.783v66.90527L345.333,657.2937V524.30884H478.11084V657.2937l-39.854-25.60547V564.783Z" transform="translate(0 -424.75996)" style="fill: #c62020"/>
    <path d="M596.43555,617.23315l26.84472,40.06055H491.7417V524.30884H623.28027l-26.84472,40.061H531.5957v6.81446h60.29688L565.46094,610.4187H531.5957v6.81445Z" transform="translate(0 -424.75996)" style="fill: #c62020"/>
    <path d="M767.41406,631.89429,740.56934,657.2937H634.63672V524.30884H767.41406v52.45068l-14.4541,14.042,14.4541,13.62891ZM727.56055,564.783H674.49023v6.40137h53.07032Zm-53.07032,52.03711h53.07032V610.4187H674.49023Z" transform="translate(0 -424.75996)" style="fill: #c62020"/>
    <path d="M885.74023,617.23315,912.585,657.2937H781.0459V524.30884H912.585l-26.84473,40.061H820.89941v6.81446h60.29786L854.76563,610.4187H820.89941v6.81445Z" transform="translate(0 -424.75996)" style="fill: #c62020"/>
    <path d="M1016.86426,617.23315V610.4187H923.94043V524.30884h132.77734l-26.84472,40.061H963.794v6.81446h92.92382V657.2937H923.94043l26.84473-40.06055Z" transform="translate(0 -424.75996)" style="fill: #c62020"/>
    <path d="M1114.54,631.68823V564.36987h-19.61719l-26.84472-40.061h132.77734l-26.84473,40.061h-19.61719V657.2937Z" transform="translate(0 -424.75996)" style="fill: #c62020"/>
  </g>
</svg>
